<svg xmlns="http://www.w3.org/2000/svg" viewBox="0 0 600 300" width="600" height="300">
    <!-- Earth -->
    <circle cx="300" cy="150" r="120" fill="white" stroke="black" stroke-width="5" />
    <!-- Dots -->
    <circle cx="300" cy="30" r="2" fill="black" />
    <circle cx="398" cy="79" r="2" fill="black" />
    <circle cx="364" cy="209" r="2" fill="black" />
    <circle cx="236" cy="209" r="2" fill="black" />
    <circle cx="202" cy="79" r="2" fill="black" />
    <circle cx="300" cy="150" r="2" fill="black" />
    <circle cx="300" cy="270" r="2" fill="black" />
    <circle cx="398" cy="221" r="2" fill="black" />
    <circle cx="364" cy="91" r="2" fill="black" />
    <circle cx="236" cy="91" r="2" fill="black" />
    <circle cx="202" cy="221" r="2" fill="black" />
    <!-- Lines -->
    <line x1="300" y1="30" x2="300" y2="150" stroke="black" stroke-width="1" />
    <line x1="300" y1="30" x2="398" y2="79" stroke="black" stroke-width="1" />
    <line x1="300" y1="30" x2="364" y2="209" stroke="black" stroke-width="1" />
    <line x1="300" y1="30" x2="236" y2="209" stroke="black" stroke-width="1" />
    <line x1="300" y1="30" x2="202" y2="79" stroke="black" stroke-width="1" />
    <line x1="300" y1="30" x2="300" y2="270" stroke="black" stroke-width="1" />
    <line x1="300" y1="30" x2="398" y2="221" stroke="black" stroke-width="1" />
    <line x1="300" y1="30" x2="364" y2="91" stroke="black" stroke-width="1" />
    <line x1="300" y1="30" x2="236" y2="91" stroke="black" stroke-width="1" />
    <line x1="300" y1="30" x2="202" y2="221" stroke="black" stroke-width="1" />
</svg>
